<svg id="svg2" xmlns="http://www.w3.org/2000/svg" viewBox="0 0 616 224">
  <defs>
    <style>
      .cls-1 {
        fill: #fff;
      }
    </style>
  </defs>
  <title>logos</title>
  <g>
    <polyline class="cls-1" points="232.98 206.78 15 206.78 116.8 18.88 334.78 18.88 232.98 206.78"/>
    <path id="C" class="cls-1" d="M572.31,116.46c-2.3-16.62-14-25.59-30.08-25.59-15,0-36.21,8.18-36.21,49.59,0,22.68,9.69,46.69,34.93,46.69,16.82,0,28.55-11.62,31.36-31.13h29.06C596,191.36,574.86,210.87,541,210.87c-41.3,0-64-30.32-64-70.41,0-41.14,21.67-73.32,65-73.32,30.59,0,56.61,15.82,59.4,49.32H572.31"/>
    <path id="B" class="cls-1" d="M399.6,90.87c-24.47,0-37,19.26-37,48.27,0,27.42,13.52,48,37,48,26.52,0,36.46-24.27,36.46-48,0-24.79-12.51-48.27-36.47-48.27m-65-72h29.06V88.5h0.51c7.9-13.18,24.47-21.36,39.26-21.36,41.55,0,61.7,32.71,61.7,72.54,0,36.65-17.85,71.2-56.86,71.2-17.85,0-37-4.47-45.64-22.41h-0.5v18.73H334.59V18.88h0"/>
  </g>
</svg>
