<svg id="svg2" xmlns="http://www.w3.org/2000/svg" viewBox="0 0 682.67 682.67">
  <defs>
    <style>
      .cls-1 {
        fill: #fff;
      }
    </style>
  </defs>
  <title>bandcamp-white</title>
  <g>
    <path class="cls-1" d="M433.14,317.87c-24.46,0-37,19.26-37,48.27,0,27.42,13.52,48,37,48,26.52,0,36.46-24.27,36.46-48C469.58,341.35,457.09,317.87,433.14,317.87Z" transform="translate(0 0)"/>
    <path class="cls-1" d="M341.33,0C152.82,0,0,152.82,0,341.33S152.82,682.67,341.33,682.67,682.67,529.85,682.67,341.33,529.85,0,341.33,0ZM441.81,437.87c-17.85,0-37-4.47-45.64-22.41h-0.5v18.73H368.13v-188L266.53,433.78h-218L150.34,245.88H397.2V315.5h0.51c7.9-13.18,24.47-21.36,39.26-21.36,41.55,0,61.7,32.71,61.7,72.54C498.67,403.32,480.82,437.87,441.81,437.87Zm132.68,0c-41.3,0-64-30.32-64-70.41,0-41.14,21.67-73.32,65-73.32,30.59,0,56.61,15.82,59.4,49.32H605.85c-2.3-16.62-14-25.59-30.08-25.59-15,0-36.21,8.18-36.21,49.59,0,22.68,9.69,46.69,34.93,46.69,16.82,0,28.55-11.62,31.36-31.13h29.06C629.56,418.36,608.4,437.87,574.49,437.87Z" transform="translate(0 0)"/>
  </g>
</svg>
