<?xml version="1.0" encoding="utf-8"?>
<!-- Generator: Adobe Illustrator 19.2.0, SVG Export Plug-In . SVG Version: 6.00 Build 0)  -->
<svg version="1.1" id="Layer_1" xmlns="http://www.w3.org/2000/svg" xmlns:xlink="http://www.w3.org/1999/xlink" x="0px" y="0px"
	 viewBox="0 0 305 305" style="enable-background:new 0 0 305 305;" xml:space="preserve">
<style type="text/css">
	.st0{fill:#FFFFFF;}
</style>
<path class="st0" d="M152.5,0C68.4,0,0,68.4,0,152.5S68.4,305,152.5,305S305,236.6,305,152.5S236.6,0,152.5,0z M186.3,221.1
	c-1.1,0.1-2.2,0.2-3.2,0.2c-13,0-23.5-9.8-24.5-22.7c-1.1-14,9.5-26.9,23.6-28.6c3.1-0.4,6.2-0.2,9.2,0.5v-56.2l-55,10.2v76.2
	c0,0.2,0,0.3,0,0.4c0,0,0,0,0,0.1c1,14-9.5,26.8-23.6,28.6c-1.1,0.1-2.1,0.2-3.2,0.2c-13,0-23.5-9.8-24.5-22.7
	c-1.1-14,9.5-26.9,23.6-28.6c3.1-0.4,6.2-0.2,9.2,0.5V92.4c0-1.2,0.9-2.3,2.1-2.5l87-14.8c0,0,0,0,0,0c0.7-0.1,1.4,0,1.9,0.4
	c0.8,0.5,1.2,1.4,1.1,2.3l0,0.3v114.1c0,0.1,0,0.3,0,0.4c0,0,0,0,0,0.1C211,206.5,200.4,219.4,186.3,221.1z"/>
</svg>
