<svg id="Layer_1" data-name="Layer 1" xmlns="http://www.w3.org/2000/svg" width="162.75" height="162.75" viewBox="0 0 162.75 162.75">
  <defs>
    <style>
      .cls-1 {
        fill: #fff;
      }
    </style>
  </defs>
  <title>sound-cloud</title>
  <g id="_Group_" data-name="&lt;Group&gt;">
    <path id="_Compound_Path_" data-name="&lt;Compound Path&gt;" class="cls-1" d="M81.38,0.81a80.56,80.56,0,1,0,80.56,80.56A80.56,80.56,0,0,0,81.38.81Zm-54,91.5-0.45.44-0.45-.44-0.82-6.17,0.82-6.27,0.45-.45,0.45,0.45,1,6.27Zm4.19,3.75-0.47.45-0.47-.46-1.11-9.91L30.64,76l0.47-.45L31.58,76l1.26,10.14Zm4.53,1.68a0.57,0.57,0,0,1-1.13,0L33.93,86.14l1.05-12a0.58,0.58,0,0,1,.57-0.56,0.59,0.59,0,0,1,.57.56l1.2,12Zm4.57,0.36a0.66,0.66,0,0,1-1.33,0l-1-12,1-12.36A0.68,0.68,0,0,1,40,73.14a0.69,0.69,0,0,1,.66.65l1.13,12.36Zm4.6,0.1a0.76,0.76,0,0,1-1.51,0L42.83,86.15l0.94-11.46a0.76,0.76,0,0,1,1.51,0l1.07,11.48Zm4.64,0h0a0.85,0.85,0,0,1-1.71,0L47.34,86.15,48.22,67.5a0.85,0.85,0,0,1,1.71,0l1,18.65Zm4.68-.07h0a1,1,0,0,1-1.9,0l-0.82-12L52.7,63.24a1,1,0,0,1,1.9,0l0.93,22.92ZM59.32,98h0a1,1,0,0,1-2.09,0L56.46,86.16l0.77-24.83a1.06,1.06,0,0,1,1-1,1.07,1.07,0,0,1,1,1l0.87,24.83Zm4.75-.08h0a1.15,1.15,0,0,1-2.29,0L61.07,86.16l0.71-25.67a1.15,1.15,0,0,1,2.29,0l0.8,25.67-0.8,11.78h0Zm4.79-.1h0a1.24,1.24,0,0,1-2.48,0L65.72,86.16l0.65-25a1.24,1.24,0,0,1,2.48,0l0.74,25Zm4.82-.07h0a1.34,1.34,0,0,1-2.67,0l-0.6-11.6L71,62.06a1.34,1.34,0,0,1,2.67,0l0.67,24.11Zm4.86-.08h0a1.43,1.43,0,0,1-2.87,0L75.13,86.16l0.54-28.67a1.43,1.43,0,0,1,2.87,0l0.61,28.68Zm4.84-.16h0a1.53,1.53,0,0,1-3.06,0L79.69,86.16l0.62-31.27a1.53,1.53,0,0,1,3.06,0l0.68,31.28Zm41.3,1.61-38.49,0a1.68,1.68,0,0,1-1.5-1.64V53.4A1.59,1.59,0,0,1,86,51.77a24.88,24.88,0,0,1,8.89-1.66,24.5,24.5,0,0,1,24.4,22.33A13.89,13.89,0,1,1,124.68,99.14Z"/>
  </g>
</svg>
